<svg xmlns="http://www.w3.org/2000/svg" viewBox="0 0 74.69 43.62"><g fill="#3D5B73"><polygon class="cls-1" points="37.21 0.36 40.29 6.38 43.38 12.41 37.21 12.41 31.04 12.41 34.12 6.38 37.21 0.36"/><path class="cls-1" d="M193.06,103.78s-32.3-.84-47-29.87L119,60.65l5.59,9.16,13.09,4.6s4.28,1.37,6.11,3.86C147.14,82.82,157.62,105.12,193.06,103.78Z" transform="translate(-118.7 -60.35)"/><path class="cls-1" d="M190,104c-29.84,0-40.9-17.24-45.15-23.87-.46-.71-.85-1.32-1.16-1.75-1.78-2.43-6-3.8-6.05-3.81l-13.14-4.61,0,0-5.81-9.53,27.49,13.46v0a53.45,53.45,0,0,0,28.91,25.76,59.72,59.72,0,0,0,17.95,4v.25C192,103.94,191,104,190,104ZM124.7,69.71l13,4.58c.18.06,4.34,1.41,6.17,3.91.32.43.69,1,1.17,1.76,4.23,6.59,15.24,23.75,44.94,23.75h.62A63.66,63.66,0,0,1,175,99.85,53.72,53.72,0,0,1,146,74L119.36,61Z" transform="translate(-118.7 -60.35)"/><path class="cls-1" d="M143.55,82.24s-2.25-4.11-4.48-4.77-12.34-4.14-12.34-4.14l3.59,5.88Z" transform="translate(-118.7 -60.35)"/><path class="cls-1" d="M143.79,82.43l-13.55-3.11-3.79-6.22.32.12c.11,0,10.14,3.48,12.34,4.13s4.45,4.66,4.55,4.83ZM130.4,79.1l12.9,3c-.53-.89-2.42-3.92-4.26-4.47s-10.26-3.42-12-4Z" transform="translate(-118.7 -60.35)"/><path class="cls-1" d="M119,103.78s32.3-.84,47-29.87l27.06-13.26-5.59,9.16-13.09,4.6s-4.28,1.37-6.11,3.86C165,82.82,154.47,105.12,119,103.78Z" transform="translate(-118.7 -60.35)"/><path class="cls-1" d="M122.06,104c-1,0-2,0-3-.06v-.25a59.72,59.72,0,0,0,17.95-4,53.45,53.45,0,0,0,28.91-25.76l0,0,0,0,27.45-13.44-5.83,9.57-13.14,4.61s-4.27,1.38-6,3.81c-.32.43-.71,1-1.17,1.75C163,86.72,151.89,104,122.06,104Zm-.62-.25h.62c29.7,0,40.71-17.16,44.94-23.75.48-.74.85-1.33,1.17-1.76,1.83-2.5,6-3.85,6.17-3.91l13-4.58L192.73,61,166.09,74a53.72,53.72,0,0,1-29,25.85A63.66,63.66,0,0,1,121.44,103.71Z" transform="translate(-118.7 -60.35)"/><path class="cls-1" d="M168.55,82.24s2.24-4.11,4.47-4.77,12.34-4.14,12.34-4.14l-3.59,5.88Z" transform="translate(-118.7 -60.35)"/><path class="cls-1" d="M168.3,82.43l.14-.25c.09-.17,2.29-4.16,4.54-4.83s12.24-4.1,12.34-4.13l.32-.12-3.79,6.22h0Zm16.77-8.87c-1.76.61-10,3.44-12,4s-3.73,3.58-4.25,4.47l12.89-3Z" transform="translate(-118.7 -60.35)"/></g></svg>